# xmcd
#
# Track frame offsets: 
#        150
#        13357
#        26116
#        41350
#        57206
#        72644
#        84769
#        99386
#        115048
#        128294
#        143139
#        160799
#        187263
#
# Disc length: 4440 seconds
#
# Revision: 1
# Processed by: cddbd v1.5PL3 Copyright (c) Steve Scherf et al.
# Submitted via: ExactAudioCopy v0.95a5
#
DISCID=a811560d
DTITLE=Patrick Bruel - Entre deux... - CD 2
DYEAR=2003
DGENRE=Chanson
TTITLE0=A Paris, dans chaque faubourg (avec Danielle Darrieux)
TTITLE1=La java bleue
TTITLE2=La complainte de la butte (avec Francis Cabrel)
TTITLE3=Premier rendez-vous
TTITLE4=Tout le jour, toute la nuit (avec Kahimi Kari)
TTITLE5=J'ai ta main (avec Zazie)
TTITLE6=Ramona
TTITLE7=Celui qui s'en va (avec Alain Souchon)
TTITLE8=On n'a pas tous les jours vingt ans
TTITLE9=La romance de Paris
TTITLE10=Parlez-moi d'amour
TTITLE11=A contretemps
TTITLE12=(data)
EXTD=
EXTT0=
EXTT1=
EXTT2=
EXTT3=
EXTT4=
EXTT5=
EXTT6=
EXTT7=
EXTT8=
EXTT9=
EXTT10=
EXTT11=
EXTT12=
PLAYORDER=
